<mxfile host="www.draw.io" modified="2020-02-23T17:28:18.744Z" agent="Mozilla/5.0 (Windows NT 10.0; Win64; x64) AppleWebKit/537.36 (KHTML, like Gecko) Chrome/80.0.3987.116 Safari/537.36" etag="FhA-vs4BBMllCmvpW1Tx" version="12.7.4" type="github">
  <diagram id="rJQalkXsSM0zu1o9MNRR" name="Page-1">
    <mxGraphModel dx="1038" dy="580" grid="1" gridSize="10" guides="1" tooltips="1" connect="1" arrows="1" fold="1" page="1" pageScale="1" pageWidth="850" pageHeight="1100" math="0" shadow="0">
      <root>
        <mxCell id="0" />
        <mxCell id="1" parent="0" />
        <mxCell id="UdCQcEMCRQz7HERftlRl-1" style="edgeStyle=orthogonalEdgeStyle;rounded=0;orthogonalLoop=1;jettySize=auto;html=1;exitX=1;exitY=0.5;exitDx=0;exitDy=0;entryX=0;entryY=0.5;entryDx=0;entryDy=0;" edge="1" parent="1" source="UdCQcEMCRQz7HERftlRl-2" target="UdCQcEMCRQz7HERftlRl-4">
          <mxGeometry relative="1" as="geometry" />
        </mxCell>
        <mxCell id="UdCQcEMCRQz7HERftlRl-2" value="" style="ellipse;whiteSpace=wrap;html=1;aspect=fixed;fillColor=#1A1A1A;" vertex="1" parent="1">
          <mxGeometry x="80" y="170" width="20" height="20" as="geometry" />
        </mxCell>
        <mxCell id="UdCQcEMCRQz7HERftlRl-3" style="edgeStyle=orthogonalEdgeStyle;rounded=0;orthogonalLoop=1;jettySize=auto;html=1;exitX=0.5;exitY=1;exitDx=0;exitDy=0;entryX=1.025;entryY=1.1;entryDx=0;entryDy=0;entryPerimeter=0;" edge="1" parent="1" source="UdCQcEMCRQz7HERftlRl-4" target="UdCQcEMCRQz7HERftlRl-26">
          <mxGeometry relative="1" as="geometry" />
        </mxCell>
        <mxCell id="UdCQcEMCRQz7HERftlRl-4" value="idle" style="rounded=1;whiteSpace=wrap;html=1;" vertex="1" parent="1">
          <mxGeometry x="170" y="150" width="120" height="60" as="geometry" />
        </mxCell>
        <mxCell id="UdCQcEMCRQz7HERftlRl-5" style="edgeStyle=orthogonalEdgeStyle;rounded=0;orthogonalLoop=1;jettySize=auto;html=1;exitX=0;exitY=0.5;exitDx=0;exitDy=0;" edge="1" parent="1" source="UdCQcEMCRQz7HERftlRl-7" target="UdCQcEMCRQz7HERftlRl-23">
          <mxGeometry relative="1" as="geometry" />
        </mxCell>
        <mxCell id="UdCQcEMCRQz7HERftlRl-6" style="edgeStyle=orthogonalEdgeStyle;rounded=0;orthogonalLoop=1;jettySize=auto;html=1;exitX=0.5;exitY=1;exitDx=0;exitDy=0;entryX=0;entryY=0.5;entryDx=0;entryDy=0;endArrow=classic;endFill=1;strokeColor=#000000;" edge="1" parent="1" source="UdCQcEMCRQz7HERftlRl-7" target="UdCQcEMCRQz7HERftlRl-19">
          <mxGeometry relative="1" as="geometry">
            <Array as="points">
              <mxPoint x="230" y="313" />
              <mxPoint x="325" y="313" />
            </Array>
          </mxGeometry>
        </mxCell>
        <mxCell id="UdCQcEMCRQz7HERftlRl-7" value="parked mode" style="rounded=1;whiteSpace=wrap;html=1;" vertex="1" parent="1">
          <mxGeometry x="170" y="240" width="120" height="60" as="geometry" />
        </mxCell>
        <mxCell id="UdCQcEMCRQz7HERftlRl-8" style="edgeStyle=orthogonalEdgeStyle;rounded=0;orthogonalLoop=1;jettySize=auto;html=1;exitX=0.5;exitY=1;exitDx=0;exitDy=0;entryX=0.5;entryY=0;entryDx=0;entryDy=0;" edge="1" parent="1" source="UdCQcEMCRQz7HERftlRl-10" target="UdCQcEMCRQz7HERftlRl-11">
          <mxGeometry relative="1" as="geometry" />
        </mxCell>
        <mxCell id="UdCQcEMCRQz7HERftlRl-9" style="edgeStyle=orthogonalEdgeStyle;rounded=0;orthogonalLoop=1;jettySize=auto;html=1;exitX=1;exitY=0.25;exitDx=0;exitDy=0;" edge="1" parent="1" source="UdCQcEMCRQz7HERftlRl-10">
          <mxGeometry relative="1" as="geometry">
            <mxPoint x="440" y="415" as="targetPoint" />
          </mxGeometry>
        </mxCell>
        <mxCell id="UdCQcEMCRQz7HERftlRl-10" value="manual mode" style="rounded=1;whiteSpace=wrap;html=1;" vertex="1" parent="1">
          <mxGeometry x="220" y="400" width="120" height="60" as="geometry" />
        </mxCell>
        <mxCell id="UdCQcEMCRQz7HERftlRl-11" value="marked mode" style="rounded=1;whiteSpace=wrap;html=1;" vertex="1" parent="1">
          <mxGeometry x="220" y="500" width="120" height="60" as="geometry" />
        </mxCell>
        <mxCell id="UdCQcEMCRQz7HERftlRl-12" style="edgeStyle=orthogonalEdgeStyle;rounded=0;orthogonalLoop=1;jettySize=auto;html=1;exitX=0;exitY=0.75;exitDx=0;exitDy=0;entryX=1;entryY=0.75;entryDx=0;entryDy=0;" edge="1" parent="1" source="UdCQcEMCRQz7HERftlRl-14" target="UdCQcEMCRQz7HERftlRl-10">
          <mxGeometry relative="1" as="geometry" />
        </mxCell>
        <mxCell id="UdCQcEMCRQz7HERftlRl-13" style="edgeStyle=orthogonalEdgeStyle;rounded=0;orthogonalLoop=1;jettySize=auto;html=1;exitX=1;exitY=0.5;exitDx=0;exitDy=0;entryX=0;entryY=0.5;entryDx=0;entryDy=0;strokeColor=#000000;endArrow=none;endFill=0;" edge="1" parent="1" source="UdCQcEMCRQz7HERftlRl-14" target="UdCQcEMCRQz7HERftlRl-22">
          <mxGeometry relative="1" as="geometry" />
        </mxCell>
        <mxCell id="UdCQcEMCRQz7HERftlRl-14" value="cruise mode" style="rounded=1;whiteSpace=wrap;html=1;" vertex="1" parent="1">
          <mxGeometry x="443" y="400" width="120" height="60" as="geometry" />
        </mxCell>
        <mxCell id="UdCQcEMCRQz7HERftlRl-15" style="edgeStyle=orthogonalEdgeStyle;rounded=0;orthogonalLoop=1;jettySize=auto;html=1;exitX=0.5;exitY=1;exitDx=0;exitDy=0;entryX=1;entryY=0.25;entryDx=0;entryDy=0;endArrow=classic;endFill=1;strokeColor=#000000;" edge="1" parent="1" source="UdCQcEMCRQz7HERftlRl-16" target="UdCQcEMCRQz7HERftlRl-7">
          <mxGeometry relative="1" as="geometry">
            <Array as="points">
              <mxPoint x="503" y="580" />
              <mxPoint x="700" y="580" />
              <mxPoint x="700" y="255" />
            </Array>
          </mxGeometry>
        </mxCell>
        <mxCell id="UdCQcEMCRQz7HERftlRl-16" value="panic mode" style="rounded=1;whiteSpace=wrap;html=1;" vertex="1" parent="1">
          <mxGeometry x="443" y="500" width="120" height="60" as="geometry" />
        </mxCell>
        <mxCell id="UdCQcEMCRQz7HERftlRl-17" style="edgeStyle=orthogonalEdgeStyle;rounded=0;orthogonalLoop=1;jettySize=auto;html=1;exitX=0;exitY=1;exitDx=0;exitDy=0;entryX=0.575;entryY=-0.05;entryDx=0;entryDy=0;entryPerimeter=0;" edge="1" parent="1" source="UdCQcEMCRQz7HERftlRl-19" target="UdCQcEMCRQz7HERftlRl-10">
          <mxGeometry relative="1" as="geometry">
            <Array as="points">
              <mxPoint x="368" y="325" />
              <mxPoint x="368" y="370" />
              <mxPoint x="289" y="370" />
            </Array>
          </mxGeometry>
        </mxCell>
        <mxCell id="UdCQcEMCRQz7HERftlRl-18" style="edgeStyle=orthogonalEdgeStyle;rounded=0;orthogonalLoop=1;jettySize=auto;html=1;exitX=1;exitY=1;exitDx=0;exitDy=0;entryX=0.5;entryY=0;entryDx=0;entryDy=0;" edge="1" parent="1" source="UdCQcEMCRQz7HERftlRl-19" target="UdCQcEMCRQz7HERftlRl-14">
          <mxGeometry relative="1" as="geometry">
            <Array as="points">
              <mxPoint x="393" y="370" />
              <mxPoint x="503" y="370" />
            </Array>
          </mxGeometry>
        </mxCell>
        <mxCell id="UdCQcEMCRQz7HERftlRl-19" value="" style="rhombus;whiteSpace=wrap;html=1;fillColor=#FFFFFF;" vertex="1" parent="1">
          <mxGeometry x="360" y="287.5" width="50" height="50" as="geometry" />
        </mxCell>
        <mxCell id="UdCQcEMCRQz7HERftlRl-20" style="edgeStyle=orthogonalEdgeStyle;rounded=0;orthogonalLoop=1;jettySize=auto;html=1;exitX=0.5;exitY=0;exitDx=0;exitDy=0;entryX=1;entryY=0.5;entryDx=0;entryDy=0;endArrow=classic;endFill=1;strokeColor=#000000;" edge="1" parent="1" source="UdCQcEMCRQz7HERftlRl-22" target="UdCQcEMCRQz7HERftlRl-7">
          <mxGeometry relative="1" as="geometry" />
        </mxCell>
        <mxCell id="UdCQcEMCRQz7HERftlRl-21" style="edgeStyle=orthogonalEdgeStyle;rounded=0;orthogonalLoop=1;jettySize=auto;html=1;exitX=0.5;exitY=1;exitDx=0;exitDy=0;entryX=1;entryY=0.5;entryDx=0;entryDy=0;endArrow=classic;endFill=1;strokeColor=#000000;" edge="1" parent="1" source="UdCQcEMCRQz7HERftlRl-22" target="UdCQcEMCRQz7HERftlRl-16">
          <mxGeometry relative="1" as="geometry" />
        </mxCell>
        <mxCell id="UdCQcEMCRQz7HERftlRl-22" value="" style="rhombus;whiteSpace=wrap;html=1;fillColor=#FFFFFF;" vertex="1" parent="1">
          <mxGeometry x="610" y="405" width="50" height="50" as="geometry" />
        </mxCell>
        <mxCell id="UdCQcEMCRQz7HERftlRl-23" value="" style="ellipse;whiteSpace=wrap;html=1;aspect=fixed;fillColor=#FFFFFF;" vertex="1" parent="1">
          <mxGeometry x="72.5" y="252.5" width="35" height="35" as="geometry" />
        </mxCell>
        <mxCell id="UdCQcEMCRQz7HERftlRl-24" value="" style="ellipse;whiteSpace=wrap;html=1;aspect=fixed;fillColor=#1A1A1A;" vertex="1" parent="1">
          <mxGeometry x="80" y="260" width="20" height="20" as="geometry" />
        </mxCell>
        <mxCell id="UdCQcEMCRQz7HERftlRl-25" value="off" style="text;html=1;align=center;verticalAlign=middle;resizable=0;points=[];autosize=1;" vertex="1" parent="1">
          <mxGeometry x="130" y="252.5" width="30" height="20" as="geometry" />
        </mxCell>
        <mxCell id="UdCQcEMCRQz7HERftlRl-26" value="start" style="text;html=1;align=center;verticalAlign=middle;resizable=0;points=[];autosize=1;" vertex="1" parent="1">
          <mxGeometry x="191" y="214" width="40" height="20" as="geometry" />
        </mxCell>
        <mxCell id="UdCQcEMCRQz7HERftlRl-27" value="" style="ellipse;whiteSpace=wrap;html=1;fillColor=#FFFFFF;" vertex="1" parent="1">
          <mxGeometry x="518" y="540" width="20" height="10" as="geometry" />
        </mxCell>
        <mxCell id="UdCQcEMCRQz7HERftlRl-28" value="" style="ellipse;whiteSpace=wrap;html=1;fillColor=#FFFFFF;" vertex="1" parent="1">
          <mxGeometry x="538" y="540" width="20" height="10" as="geometry" />
        </mxCell>
        <mxCell id="UdCQcEMCRQz7HERftlRl-29" value="cruise signal &lt;font color=&quot;#3399ff&quot;&gt;[no dest]&lt;/font&gt;" style="text;html=1;align=center;verticalAlign=middle;resizable=0;points=[];autosize=1;" vertex="1" parent="1">
          <mxGeometry x="231" y="348" width="130" height="20" as="geometry" />
        </mxCell>
        <mxCell id="UdCQcEMCRQz7HERftlRl-30" value="cruise signal &lt;font color=&quot;#3399ff&quot;&gt;[set dest] &lt;/font&gt;&lt;font color=&quot;#ff0000&quot;&gt;/ beep&lt;/font&gt;" style="text;html=1;align=center;verticalAlign=middle;resizable=0;points=[];autosize=1;" vertex="1" parent="1">
          <mxGeometry x="400" y="348" width="170" height="20" as="geometry" />
        </mxCell>
        <mxCell id="UdCQcEMCRQz7HERftlRl-31" value="stop" style="text;html=1;align=center;verticalAlign=middle;resizable=0;points=[];autosize=1;" vertex="1" parent="1">
          <mxGeometry x="240" y="470" width="40" height="20" as="geometry" />
        </mxCell>
        <mxCell id="UdCQcEMCRQz7HERftlRl-32" value="switch&lt;font color=&quot;#3333ff&quot;&gt; [set dest]&lt;/font&gt;" style="text;html=1;align=center;verticalAlign=middle;resizable=0;points=[];autosize=1;" vertex="1" parent="1">
          <mxGeometry x="337" y="398" width="100" height="20" as="geometry" />
        </mxCell>
        <mxCell id="UdCQcEMCRQz7HERftlRl-33" value="switch" style="text;html=1;align=center;verticalAlign=middle;resizable=0;points=[];autosize=1;" vertex="1" parent="1">
          <mxGeometry x="370" y="430" width="50" height="20" as="geometry" />
        </mxCell>
        <mxCell id="UdCQcEMCRQz7HERftlRl-34" value="arrived" style="text;html=1;align=center;verticalAlign=middle;resizable=0;points=[];autosize=1;" vertex="1" parent="1">
          <mxGeometry x="630" y="380" width="50" height="20" as="geometry" />
        </mxCell>
        <mxCell id="UdCQcEMCRQz7HERftlRl-35" value="unforseen" style="text;html=1;align=center;verticalAlign=middle;resizable=0;points=[];autosize=1;" vertex="1" parent="1">
          <mxGeometry x="630" y="490" width="70" height="20" as="geometry" />
        </mxCell>
        <mxCell id="UdCQcEMCRQz7HERftlRl-36" value="panic off &lt;font color=&quot;#ff0000&quot;&gt;/ hazard off&lt;/font&gt;" style="text;html=1;align=center;verticalAlign=middle;resizable=0;points=[];autosize=1;" vertex="1" parent="1">
          <mxGeometry x="550" y="575" width="120" height="20" as="geometry" />
        </mxCell>
      </root>
    </mxGraphModel>
  </diagram>
</mxfile>
